<svg width="1080" height="1080" version="1.1" viewBox="0 0 285.75 285.75" xmlns="http://www.w3.org/2000/svg">
 <g transform="translate(-1.2269 177.43)" stroke="#fff" stroke-linecap="round" stroke-linejoin="bevel">
  <path d="m59.181-120.11 172.76 172.59" fill="#fff" stop-color="#000000" stroke-width="13.203" style="paint-order:stroke fill markers"/>
  <path transform="rotate(-90)" d="m-90.888 266.69a16.265 16.265 0 0 1 4.2253-22.517 16.265 16.265 0 0 1 22.55 4.0455 16.265 16.265 0 0 1-3.8654 22.582 16.265 16.265 0 0 1-22.612-3.6851" fill="none" stop-color="#000000" stroke-width="10.816" style="paint-order:stroke fill markers"/>
  <path transform="rotate(-90)" d="m134.87 41.567a16.265 16.265 0 0 1 4.2253-22.517 16.265 16.265 0 0 1 22.55 4.0455 16.265 16.265 0 0 1-3.8654 22.582 16.265 16.265 0 0 1-22.612-3.6851" fill="none" stop-color="#000000" stroke-width="10.816" style="paint-order:stroke fill markers"/>
  <path d="m231.86-120.2-172.59 172.76" fill="#fff" stop-color="#000000" stroke-width="13.203" style="paint-order:stroke fill markers"/>
  <path d="m18.977 86.557a16.265 16.265 0 0 1 4.2253-22.517 16.265 16.265 0 0 1 22.55 4.0455 16.265 16.265 0 0 1-3.8654 22.582 16.265 16.265 0 0 1-22.612-3.6851" fill="none" stop-color="#000000" stroke-width="10.816" style="paint-order:stroke fill markers"/>
  <path d="m244.1-139.2a16.265 16.265 0 0 1 4.2253-22.517 16.265 16.265 0 0 1 22.55 4.0455 16.265 16.265 0 0 1-3.8654 22.582 16.265 16.265 0 0 1-22.612-3.6851" fill="none" stop-color="#000000" stroke-width="10.816" style="paint-order:stroke fill markers"/>
 </g>
</svg>
