<svg width="1080" height="1080" version="1.1" viewBox="0 0 285.75 285.75" xmlns="http://www.w3.org/2000/svg">
 <g stroke="#fff" stroke-linecap="round" stroke-linejoin="bevel">
  <g transform="translate(0 -2.1167)">
   <path d="m68.587 61.887h150.68" fill="#fff" stop-color="#000000" stroke-width="13.203" style="paint-order:stroke fill markers"/>
   <path transform="rotate(-90)" d="m-75.348 267.32a16.265 16.265 0 0 1 4.2253-22.517 16.265 16.265 0 0 1 22.55 4.0455 16.265 16.265 0 0 1-3.8654 22.582 16.265 16.265 0 0 1-22.612-3.6851" fill="none" stop-color="#000000" stroke-width="10.816" style="paint-order:stroke fill markers"/>
   <path transform="rotate(-90)" d="m-75.348 37.665a16.265 16.265 0 0 1 4.2253-22.517 16.265 16.265 0 0 1 22.55 4.0455 16.265 16.265 0 0 1-3.8654 22.582 16.265 16.265 0 0 1-22.612-3.6851" fill="none" stop-color="#000000" stroke-width="10.816" style="paint-order:stroke fill markers"/>
  </g>
  <g transform="translate(0 -4.7625)">
   <path d="m68.587 151.85h150.68" fill="#fff" stop-color="#000000" stroke-width="13.203" style="paint-order:stroke fill markers"/>
   <path transform="rotate(-90)" d="m-165.31 267.32a16.265 16.265 0 0 1 4.2253-22.517 16.265 16.265 0 0 1 22.55 4.0455 16.265 16.265 0 0 1-3.8654 22.582 16.265 16.265 0 0 1-22.612-3.6851" fill="none" stop-color="#000000" stroke-width="10.816" style="paint-order:stroke fill markers"/>
   <path transform="rotate(-90)" d="m-165.31 37.665a16.265 16.265 0 0 1 4.2253-22.517 16.265 16.265 0 0 1 22.55 4.0455 16.265 16.265 0 0 1-3.8654 22.582 16.265 16.265 0 0 1-22.612-3.6851" fill="none" stop-color="#000000" stroke-width="10.816" style="paint-order:stroke fill markers"/>
  </g>
  <g transform="translate(0 -2.1167)">
   <path d="m68.587 236.51h150.68" fill="#fff" stop-color="#000000" stroke-width="13.203" style="paint-order:stroke fill markers"/>
   <path transform="rotate(-90)" d="m-249.97 267.32a16.265 16.265 0 0 1 4.2253-22.517 16.265 16.265 0 0 1 22.55 4.0455 16.265 16.265 0 0 1-3.8654 22.582 16.265 16.265 0 0 1-22.612-3.6851" fill="none" stop-color="#000000" stroke-width="10.816" style="paint-order:stroke fill markers"/>
   <path transform="rotate(-90)" d="m-249.97 37.665a16.265 16.265 0 0 1 4.2253-22.517 16.265 16.265 0 0 1 22.55 4.0455 16.265 16.265 0 0 1-3.8654 22.582 16.265 16.265 0 0 1-22.612-3.6851" fill="none" stop-color="#000000" stroke-width="10.816" style="paint-order:stroke fill markers"/>
  </g>
 </g>
</svg>
