<?xml version="1.0" encoding="UTF-8" standalone="no"?>
<!-- Created with Inkscape (http://www.inkscape.org/) -->

<svg
   width="1080"
   height="1080"
   viewBox="0 0 285.75 285.75001"
   version="1.1"
   id="svg5"
   inkscape:version="1.2.1 (9c6d41e410, 2022-07-14)"
   sodipodi:docname="hamburger.svg"
   inkscape:export-filename="hamburger.png"
   inkscape:export-xdpi="96"
   inkscape:export-ydpi="96"
   xmlns:inkscape="http://www.inkscape.org/namespaces/inkscape"
   xmlns:sodipodi="http://sodipodi.sourceforge.net/DTD/sodipodi-0.dtd"
   xmlns="http://www.w3.org/2000/svg"
   xmlns:svg="http://www.w3.org/2000/svg">
  <sodipodi:namedview
     id="namedview7"
     pagecolor="#ffffff"
     bordercolor="#000000"
     borderopacity="0.25"
     inkscape:showpageshadow="2"
     inkscape:pageopacity="0.0"
     inkscape:pagecheckerboard="0"
     inkscape:deskcolor="#d1d1d1"
     inkscape:document-units="mm"
     showgrid="false"
     inkscape:zoom="0.457453"
     inkscape:cx="654.71207"
     inkscape:cy="586.94554"
     inkscape:window-width="3840"
     inkscape:window-height="2053"
     inkscape:window-x="3061"
     inkscape:window-y="-11"
     inkscape:window-maximized="1"
     inkscape:current-layer="layer1" />
  <defs
     id="defs2" />
  <g
     inkscape:label="Layer 1"
     inkscape:groupmode="layer"
     id="layer1">
    <g
       id="g1243"
       transform="translate(0,-2.1166667)"
       style="stroke:#ffffff">
      <path
         style="fill:#ffffff;fill-opacity:1;stroke:#ffffff;stroke-width:13.2033;stroke-linecap:round;stroke-linejoin:bevel;stroke-dasharray:none;paint-order:stroke fill markers;stop-color:#000000"
         d="M 68.587278,61.887051 H 219.26608"
         id="path11971-5"
         sodipodi:nodetypes="cc" />
      <path
         style="fill:none;fill-opacity:1;stroke:#ffffff;stroke-width:10.8159;stroke-linecap:round;stroke-linejoin:bevel;stroke-dasharray:none;paint-order:stroke fill markers;stop-color:#000000"
         id="path9921-7-5"
         sodipodi:type="arc"
         sodipodi:cx="-61.886562"
         sodipodi:cy="258.19467"
         sodipodi:rx="16.264931"
         sodipodi:ry="16.264931"
         sodipodi:start="2.5456747"
         sodipodi:end="2.5137561"
         sodipodi:open="true"
         sodipodi:arc-type="arc"
         d="m -75.347966,267.32367 a 16.264931,16.264931 0 0 1 4.225281,-22.51713 16.264931,16.264931 0 0 1 22.550126,4.04547 16.264931,16.264931 0 0 1 -3.865401,22.58169 16.264931,16.264931 0 0 1 -22.611814,-3.68509"
         transform="rotate(-90)" />
      <path
         style="fill:none;fill-opacity:1;stroke:#ffffff;stroke-width:10.8159;stroke-linecap:round;stroke-linejoin:bevel;stroke-dasharray:none;paint-order:stroke fill markers;stop-color:#000000"
         id="path9921-7-5-9"
         sodipodi:type="arc"
         sodipodi:cx="-61.886562"
         sodipodi:cy="28.536238"
         sodipodi:rx="16.264931"
         sodipodi:ry="16.264931"
         sodipodi:start="2.5456747"
         sodipodi:end="2.5137561"
         sodipodi:open="true"
         sodipodi:arc-type="arc"
         d="m -75.347966,37.665235 a 16.264931,16.264931 0 0 1 4.225281,-22.517127 16.264931,16.264931 0 0 1 22.550126,4.04547 16.264931,16.264931 0 0 1 -3.865401,22.581689 16.264931,16.264931 0 0 1 -22.611814,-3.685086"
         transform="rotate(-90)" />
    </g>
    <g
       id="g1301"
       transform="translate(0,-4.7624588)"
       style="stroke:#ffffff">
      <path
         style="fill:#ffffff;fill-opacity:1;stroke:#ffffff;stroke-width:13.2033;stroke-linecap:round;stroke-linejoin:bevel;stroke-dasharray:none;paint-order:stroke fill markers;stop-color:#000000"
         d="M 68.587278,151.84542 H 219.26608"
         id="path11971-5-9"
         sodipodi:nodetypes="cc" />
      <path
         style="fill:none;fill-opacity:1;stroke:#ffffff;stroke-width:10.8159;stroke-linecap:round;stroke-linejoin:bevel;stroke-dasharray:none;paint-order:stroke fill markers;stop-color:#000000"
         id="path9921-7-5-1"
         sodipodi:type="arc"
         sodipodi:cx="-151.84489"
         sodipodi:cy="258.19467"
         sodipodi:rx="16.264931"
         sodipodi:ry="16.264931"
         sodipodi:start="2.5456747"
         sodipodi:end="2.5137561"
         sodipodi:open="true"
         sodipodi:arc-type="arc"
         d="m -165.3063,267.32367 a 16.264931,16.264931 0 0 1 4.22528,-22.51713 16.264931,16.264931 0 0 1 22.55013,4.04547 16.264931,16.264931 0 0 1 -3.8654,22.58169 16.264931,16.264931 0 0 1 -22.61182,-3.68509"
         transform="rotate(-90)" />
      <path
         style="fill:none;fill-opacity:1;stroke:#ffffff;stroke-width:10.8159;stroke-linecap:round;stroke-linejoin:bevel;stroke-dasharray:none;paint-order:stroke fill markers;stop-color:#000000"
         id="path9921-7-5-9-2"
         sodipodi:type="arc"
         sodipodi:cx="-151.84489"
         sodipodi:cy="28.536238"
         sodipodi:rx="16.264931"
         sodipodi:ry="16.264931"
         sodipodi:start="2.5456747"
         sodipodi:end="2.5137561"
         sodipodi:open="true"
         sodipodi:arc-type="arc"
         d="m -165.3063,37.665235 a 16.264931,16.264931 0 0 1 4.22528,-22.517127 16.264931,16.264931 0 0 1 22.55013,4.04547 16.264931,16.264931 0 0 1 -3.8654,22.581689 16.264931,16.264931 0 0 1 -22.61182,-3.685086"
         transform="rotate(-90)" />
    </g>
    <g
       id="g1306"
       transform="translate(0,-2.1166667)"
       style="stroke:#ffffff">
      <path
         style="fill:#ffffff;fill-opacity:1;stroke:#ffffff;stroke-width:13.2033;stroke-linecap:round;stroke-linejoin:bevel;stroke-dasharray:none;paint-order:stroke fill markers;stop-color:#000000"
         d="M 68.587278,236.51214 H 219.26608"
         id="path11971-5-9-4"
         sodipodi:nodetypes="cc" />
      <path
         style="fill:none;fill-opacity:1;stroke:#ffffff;stroke-width:10.8159;stroke-linecap:round;stroke-linejoin:bevel;stroke-dasharray:none;paint-order:stroke fill markers;stop-color:#000000"
         id="path9921-7-5-1-3"
         sodipodi:type="arc"
         sodipodi:cx="-236.51164"
         sodipodi:cy="258.19467"
         sodipodi:rx="16.264931"
         sodipodi:ry="16.264931"
         sodipodi:start="2.5456747"
         sodipodi:end="2.5137561"
         sodipodi:open="true"
         sodipodi:arc-type="arc"
         d="m -249.97305,267.32367 a 16.264931,16.264931 0 0 1 4.22529,-22.51713 16.264931,16.264931 0 0 1 22.55012,4.04547 16.264931,16.264931 0 0 1 -3.8654,22.58169 16.264931,16.264931 0 0 1 -22.61181,-3.68509"
         transform="rotate(-90)" />
      <path
         style="fill:none;fill-opacity:1;stroke:#ffffff;stroke-width:10.8159;stroke-linecap:round;stroke-linejoin:bevel;stroke-dasharray:none;paint-order:stroke fill markers;stop-color:#000000"
         id="path9921-7-5-9-2-2"
         sodipodi:type="arc"
         sodipodi:cx="-236.51164"
         sodipodi:cy="28.536238"
         sodipodi:rx="16.264931"
         sodipodi:ry="16.264931"
         sodipodi:start="2.5456747"
         sodipodi:end="2.5137561"
         sodipodi:open="true"
         sodipodi:arc-type="arc"
         d="m -249.97305,37.665235 a 16.264931,16.264931 0 0 1 4.22529,-22.517127 16.264931,16.264931 0 0 1 22.55012,4.04547 16.264931,16.264931 0 0 1 -3.8654,22.581689 16.264931,16.264931 0 0 1 -22.61181,-3.685086"
         transform="rotate(-90)" />
    </g>
  </g>
</svg>
