<svg width="1920" height="1080" version="1.1" viewBox="0 0 508 285.75" xml:space="preserve" xmlns="http://www.w3.org/2000/svg"><g stroke-linecap="round" stroke-linejoin="bevel"><g fill="#ffffff" font-family="'Palace Script MT'" stroke="#4d4d4d"><text x="67.506859" y="114.71928" font-size="97.6px" stop-color="#000000" stroke-width="5.7638" style="line-height:1;paint-order:stroke fill markers;text-decoration-color:#000000" xml:space="preserve"><tspan x="67.506859" y="114.71928" fill="#ffffff" font-family="Kanit" font-size="97.6px" font-weight="bold" stroke="none" stroke-width="5.7638">TRAIN</tspan></text><text x="357.03433" y="115.28813" font-size="54.704px" stop-color="#000000" stroke-width="3.2305" style="line-height:1;paint-order:stroke fill markers;text-decoration-color:#000000" xml:space="preserve"><tspan x="357.03433" y="115.28813" fill="#ffffff" font-family="Kanit" font-size="54.704px" font-weight="bold" stroke="none" stroke-width="3.2305">THE</tspan></text><text x="331.5" y="280.17914" font-size="54.704px" stop-color="#000000" stroke-width="3.2305" style="line-height:1;paint-order:stroke fill markers;text-decoration-color:#000000" xml:space="preserve"><tspan x="331.5" y="280.17914" fill="#ffffff" font-family="Kanit" font-size="54.704px" font-weight="bold" stroke="none" stroke-width="3.2305">.COM</tspan></text></g><text x="42.565407" y="231.86359" fill="#ff0000" font-family="'Palace Script MT'" font-size="160.54px" stop-color="#000000" stroke="#4d4d4d" stroke-width="5.5951" style="line-height:1;paint-order:stroke fill markers;text-decoration-color:#000000" xml:space="preserve"><tspan x="42.565407" y="231.86359" fill="#ff0000" font-family="Kanit" font-size="160.54px" font-weight="bold" stroke="none" stroke-width="5.5951">ALGO</tspan></text><g stroke="#fff"><path transform="matrix(0,-1,-1,0,0,0)" d="m-277.87-10.871a10.64 10.64 0 0 1 2.7641-14.73 10.64 10.64 0 0 1 14.752 2.6464 10.64 10.64 0 0 1-2.5286 14.772 10.64 10.64 0 0 1-14.792-2.4107" fill="none" stop-color="#000000" stroke-width="7.0755" style="paint-order:stroke fill markers"/><path d="m43.686 269.06h263.62" fill="#fff" stop-color="#000000" stroke-width="8.6372" style="paint-order:stroke fill markers"/><path transform="rotate(-90)" d="m-277.87 497.16a10.64 10.64 0 0 1 2.7641-14.73 10.64 10.64 0 0 1 14.752 2.6464 10.64 10.64 0 0 1-2.5286 14.772 10.64 10.64 0 0 1-14.792-2.4107" fill="none" stop-color="#000000" stroke-width="7.0755" style="paint-order:stroke fill markers"/><path transform="matrix(0,-1,-1,0,0,0)" d="m-25.606-10.871a10.64 10.64 0 0 1 2.7641-14.73 10.64 10.64 0 0 1 14.752 2.6464 10.64 10.64 0 0 1-2.5286 14.772 10.64 10.64 0 0 1-14.792-2.4107" fill="none" stop-color="#000000" stroke-width="7.0755" style="paint-order:stroke fill markers"/></g><g stroke="#fff" stroke-width="8.6372"><path d="m43.686 16.8h422.04" fill="#fff" stop-color="#000000" style="paint-order:stroke fill markers"/><path d="m16.843 40.875v204.43" stop-color="#000000" style="paint-order:stroke fill markers"/><path d="m491.19 40.875v204.43" stop-color="#000000" style="paint-order:stroke fill markers"/></g><path transform="rotate(-90)" d="m-25.606 497.16a10.64 10.64 0 0 1 2.7641-14.73 10.64 10.64 0 0 1 14.752 2.6464 10.64 10.64 0 0 1-2.5286 14.772 10.64 10.64 0 0 1-14.792-2.4107" fill="none" stop-color="#000000" stroke="#fff" stroke-width="7.0755" style="paint-order:stroke fill markers"/></g></svg>
