<?xml version="1.0" encoding="UTF-8" standalone="no"?>
<!-- Created with Inkscape (http://www.inkscape.org/) -->

<svg
   width="1920"
   height="1080"
   viewBox="0 0 508 285.75001"
   version="1.1"
   id="svg5"
   inkscape:version="1.2.1 (9c6d41e410, 2022-07-14)"
   sodipodi:docname="logo_white.svg"
   xml:space="preserve"
   inkscape:export-filename="./logo_white.png"
   inkscape:export-xdpi="96"
   inkscape:export-ydpi="96"
   xmlns:inkscape="http://www.inkscape.org/namespaces/inkscape"
   xmlns:sodipodi="http://sodipodi.sourceforge.net/DTD/sodipodi-0.dtd"
   xmlns="http://www.w3.org/2000/svg"
   xmlns:svg="http://www.w3.org/2000/svg"><sodipodi:namedview
     id="namedview7"
     pagecolor="#ffffff"
     bordercolor="#000000"
     borderopacity="0.25"
     inkscape:showpageshadow="2"
     inkscape:pageopacity="0"
     inkscape:pagecheckerboard="0"
     inkscape:deskcolor="#d1d1d1"
     inkscape:document-units="mm"
     showgrid="false"
     inkscape:zoom="0.32346812"
     inkscape:cx="1320.0683"
     inkscape:cy="-1187.134"
     inkscape:window-width="3840"
     inkscape:window-height="2054"
     inkscape:window-x="3061"
     inkscape:window-y="-11"
     inkscape:window-maximized="1"
     inkscape:current-layer="layer1" /><defs
     id="defs2" /><g
     inkscape:label="Layer 1"
     inkscape:groupmode="layer"
     id="layer1"><g
       aria-label="TRAIN"
       id="text233"
       style="font-size:97.6004px;line-height:1;font-family:'Palace Script MT';-inkscape-font-specification:'Palace Script MT';fill:#ffffff;stroke:#4d4d4d;stroke-width:5.76381;stroke-linecap:round;stroke-linejoin:bevel;paint-order:stroke fill markers;stop-color:#000000"><path
         d="M 85.660534,114.71928 V 65.528673 H 67.994861 V 51.864617 h 53.680219 v 13.664056 h -17.66567 v 49.190607 z"
         style="font-weight:bold;font-family:Kanit;-inkscape-font-specification:'Kanit Bold';stroke:none"
         id="path310" /><path
         d="M 126.55505,114.71928 V 51.864617 h 32.69614 q 7.71043,0 12.59045,2.830412 4.97762,2.830411 7.41763,7.905632 2.44001,4.977621 2.44001,11.614448 0,6.344026 -3.22082,11.224047 -3.12321,4.782419 -8.39363,7.32003 1.0736,0.878403 1.85441,2.147209 0.7808,1.171204 1.75681,3.318413 l 7.22243,16.494472 H 161.7888 l -6.63683,-15.128066 q -0.7808,-1.756807 -1.95201,-2.44001 -1.0736,-0.780803 -3.12321,-0.780803 h -5.17282 v 18.348879 z m 18.34888,-32.403337 h 9.66244 q 4.00161,0 6.14882,-2.049609 2.24481,-2.147209 2.24481,-6.051225 0,-8.296034 -7.80803,-8.296034 h -10.24804 z"
         style="font-weight:bold;font-family:Kanit;-inkscape-font-specification:'Kanit Bold';stroke:none"
         id="path312" /><path
         d="m 182.18729,114.71928 24.1073,-62.854663 h 19.42248 l 24.1073,62.854663 h -19.12968 l -5.27042,-13.37126 h -18.93448 l -5.17282,13.37126 z M 208.9298,88.171967 h 14.05446 l -7.02723,-18.446476 z"
         style="font-weight:bold;font-family:Kanit;-inkscape-font-specification:'Kanit Bold';stroke:none"
         id="path314" /><path
         d="M 256.65641,114.71928 V 51.864617 h 18.34888 v 62.854663 z"
         style="font-weight:bold;font-family:Kanit;-inkscape-font-specification:'Kanit Bold';stroke:none"
         id="path316" /><path
         d="M 283.7893,114.71928 V 51.864617 h 15.61607 l 23.7169,33.281737 V 51.864617 h 18.34887 v 62.854663 h -15.71366 l -23.6193,-33.184141 v 33.184141 z"
         style="font-weight:bold;font-family:Kanit;-inkscape-font-specification:'Kanit Bold';stroke:none"
         id="path318" /></g><g
       aria-label="THE"
       id="text233-3"
       style="font-size:54.7038px;line-height:1;font-family:'Palace Script MT';-inkscape-font-specification:'Palace Script MT';stroke:#4d4d4d;stroke-width:3.23054;stroke-linecap:round;stroke-linejoin:bevel;paint-order:stroke fill markers;stop-color:#000000"><path
         d="M 366.1508,115.28813 V 87.717416 h -9.90139 v -7.658532 h 30.08709 v 7.658532 h -9.90139 v 27.570714 z"
         style="font-weight:bold;font-family:Kanit;-inkscape-font-specification:'Kanit Bold';fill:#ffffff;stroke:none"
         id="path321" /><path
         d="M 389.07166,115.28813 V 80.058884 h 10.28431 v 13.128912 h 12.14425 V 80.058884 h 10.28431 v 35.229246 h -10.28431 v -13.12891 h -12.14425 v 13.12891 z"
         style="font-weight:bold;font-family:Kanit;-inkscape-font-specification:'Kanit Bold';fill:#ffffff;stroke:none"
         id="path323" /><path
         d="M 426.70786,115.28813 V 80.058884 h 26.69545 v 7.877348 h -16.41114 v 5.743899 h 14.3871 v 7.986759 h -14.3871 v 5.74389 h 16.41114 v 7.87735 z"
         style="font-weight:bold;font-family:Kanit;-inkscape-font-specification:'Kanit Bold';fill:#ffffff;stroke:none"
         id="path325" /></g><g
       aria-label="ALGO"
       id="text233-8"
       style="font-size:160.537px;line-height:1;font-family:'Palace Script MT';-inkscape-font-specification:'Palace Script MT';fill:#ff0000;stroke:#4d4d4d;stroke-width:5.5951;stroke-linecap:round;stroke-linejoin:bevel;paint-order:stroke fill markers;stop-color:#000000"><path
         d="M 46.578832,231.86359 86.231471,128.47776 h 31.946869 l 39.65263,103.38583 h -31.46525 l -8.669,-21.99357 H 86.552546 l -8.508462,21.99357 z M 90.565971,188.19752 H 113.6833 l -11.55867,-30.34149 z"
         style="font-weight:bold;font-family:Kanit;-inkscape-font-specification:'Kanit Bold';stroke:none"
         id="path301" /><path
         d="M 169.06857,231.86359 V 128.47776 h 30.18096 v 80.2685 h 46.55573 v 23.11733 z"
         style="font-weight:bold;font-family:Kanit;-inkscape-font-specification:'Kanit Bold';stroke:none"
         id="path303" /><path
         d="m 305.52496,233.46896 q -27.61236,0 -42.06069,-13.48511 -14.44833,-13.64565 -14.44833,-38.84996 0,-26.00699 14.92994,-40.13425 14.92994,-14.12725 43.66606,-14.12725 9.63222,0 17.338,1.12376 7.86631,1.12375 14.7694,3.37127 v 25.84646 q -7.06363,-2.72913 -14.60887,-3.69235 -7.54523,-0.96322 -15.41155,-0.96322 -14.92994,0 -22.47518,6.74255 -7.3847,6.74256 -7.3847,21.83303 0,14.12726 6.42148,20.3882 6.58202,6.26095 19.26444,6.26095 4.17396,0 7.86631,-0.48161 3.69235,-0.64215 6.90309,-1.60537 v -15.09048 h -20.54873 v -18.6223 h 45.75304 v 52.01399 q -5.93987,3.69235 -15.89316,6.58202 -9.79276,2.88967 -24.08055,2.88967 z"
         style="font-weight:bold;font-family:Kanit;-inkscape-font-specification:'Kanit Bold';stroke:none"
         id="path305" /><path
         d="m 406.34234,233.46896 q -25.68592,0 -39.33156,-12.52189 -13.48511,-12.52189 -13.48511,-40.45532 0,-19.26444 6.10041,-30.98365 6.1004,-11.87973 17.8196,-17.17746 11.87974,-5.45825 28.89666,-5.45825 17.01693,0 28.73613,5.45825 11.87974,5.29773 17.98014,17.17746 6.10041,11.71921 6.10041,30.98365 0,27.93343 -13.64565,40.45532 -13.64564,12.52189 -39.17103,12.52189 z m 0,-25.68592 q 11.55867,0 16.69585,-6.42148 5.29772,-6.58202 5.29772,-20.86981 0,-15.25102 -5.29772,-21.51196 -5.13718,-6.42148 -16.69585,-6.42148 -11.55866,0 -16.85638,6.42148 -5.13719,6.26094 -5.13719,21.51196 0,14.28779 5.13719,20.86981 5.29772,6.42148 16.85638,6.42148 z"
         style="font-weight:bold;font-family:Kanit;-inkscape-font-specification:'Kanit Bold';stroke:none"
         id="path307" /></g><path
       style="fill:none;fill-opacity:1;stroke:#ffffff;stroke-width:7.07547;stroke-linecap:round;stroke-linejoin:bevel;stroke-dasharray:none;paint-order:stroke fill markers;stop-color:#000000"
       id="path9921"
       sodipodi:type="arc"
       sodipodi:cx="-269.05896"
       sodipodi:cy="-16.843145"
       sodipodi:rx="10.640079"
       sodipodi:ry="10.640079"
       sodipodi:start="2.5456747"
       sodipodi:end="2.5137561"
       sodipodi:open="true"
       sodipodi:arc-type="arc"
       d="m -277.86505,-10.871202 a 10.640079,10.640079 0 0 1 2.76407,-14.730096 10.640079,10.640079 0 0 1 14.75168,2.646437 10.640079,10.640079 0 0 1 -2.52864,14.7723309 10.640079,10.640079 0 0 1 -14.79204,-2.4106839"
       transform="matrix(0,-1,-1,0,0,0)" /><path
       style="fill:#ffffff;fill-opacity:1;stroke:#ffffff;stroke-width:8.63722;stroke-linecap:round;stroke-linejoin:bevel;stroke-dasharray:none;paint-order:stroke fill markers;stop-color:#000000"
       d="M 43.685717,269.05925 H 465.72192"
       id="path11971"
       sodipodi:nodetypes="cc" /><path
       style="fill:none;fill-opacity:1;stroke:#ffffff;stroke-width:7.07547;stroke-linecap:round;stroke-linejoin:bevel;stroke-dasharray:none;paint-order:stroke fill markers;stop-color:#000000"
       id="path9921-7"
       sodipodi:type="arc"
       sodipodi:cx="-269.05896"
       sodipodi:cy="491.18793"
       sodipodi:rx="10.640079"
       sodipodi:ry="10.640079"
       sodipodi:start="2.5456747"
       sodipodi:end="2.5137561"
       sodipodi:open="true"
       sodipodi:arc-type="arc"
       d="m -277.86505,497.15987 a 10.640079,10.640079 0 0 1 2.76407,-14.7301 10.640079,10.640079 0 0 1 14.75168,2.64644 10.640079,10.640079 0 0 1 -2.52864,14.77233 10.640079,10.640079 0 0 1 -14.79204,-2.41068"
       transform="rotate(-90)" /><path
       style="fill:none;fill-opacity:1;stroke:#ffffff;stroke-width:7.07547;stroke-linecap:round;stroke-linejoin:bevel;stroke-dasharray:none;paint-order:stroke fill markers;stop-color:#000000"
       id="path9921-5"
       sodipodi:type="arc"
       sodipodi:cx="-16.799994"
       sodipodi:cy="-16.843145"
       sodipodi:rx="10.640079"
       sodipodi:ry="10.640079"
       sodipodi:start="2.5456747"
       sodipodi:end="2.5137561"
       sodipodi:open="true"
       sodipodi:arc-type="arc"
       d="m -25.60608,-10.871202 a 10.640079,10.640079 0 0 1 2.764065,-14.730096 10.640079,10.640079 0 0 1 14.7516829,2.646437 10.640079,10.640079 0 0 1 -2.5286409,14.7723309 10.640079,10.640079 0 0 1 -14.792038,-2.4106839"
       transform="matrix(0,-1,-1,0,0,0)" /><path
       style="fill:#ffffff;fill-opacity:1;stroke:#ffffff;stroke-width:8.63722;stroke-linecap:round;stroke-linejoin:bevel;stroke-dasharray:none;paint-order:stroke fill markers;stop-color:#000000"
       d="M 43.685717,16.800295 H 465.72192"
       id="path11971-5"
       sodipodi:nodetypes="cc" /><path
       style="fill:#000000;fill-opacity:1;stroke:#ffffff;stroke-width:8.63722;stroke-linecap:round;stroke-linejoin:bevel;stroke-dasharray:none;paint-order:stroke fill markers;stop-color:#000000"
       d="M 16.843441,40.875027 V 245.30586"
       id="path11971-5-1"
       sodipodi:nodetypes="cc" /><path
       style="fill:#000000;fill-opacity:1;stroke:#ffffff;stroke-width:8.63722;stroke-linecap:round;stroke-linejoin:bevel;stroke-dasharray:none;paint-order:stroke fill markers;stop-color:#000000"
       d="M 491.18764,40.875027 V 245.30586"
       id="path11971-5-1-8"
       sodipodi:nodetypes="cc" /><path
       style="fill:none;fill-opacity:1;stroke:#ffffff;stroke-width:7.07547;stroke-linecap:round;stroke-linejoin:bevel;stroke-dasharray:none;paint-order:stroke fill markers;stop-color:#000000"
       id="path9921-7-5"
       sodipodi:type="arc"
       sodipodi:cx="-16.799994"
       sodipodi:cy="491.18793"
       sodipodi:rx="10.640079"
       sodipodi:ry="10.640079"
       sodipodi:start="2.5456747"
       sodipodi:end="2.5137561"
       sodipodi:open="true"
       sodipodi:arc-type="arc"
       d="m -25.60608,497.15987 a 10.640079,10.640079 0 0 1 2.764065,-14.7301 10.640079,10.640079 0 0 1 14.7516829,2.64644 10.640079,10.640079 0 0 1 -2.5286409,14.77233 10.640079,10.640079 0 0 1 -14.792038,-2.41068"
       transform="rotate(-90)" /></g></svg>
